<svg width="156" height="156" viewBox="0 0 156 156" fill="none" xmlns="http://www.w3.org/2000/svg">
<circle cx="60.0758" cy="60.0757" r="42.48" transform="rotate(-45 60.0758 60.0757)" fill="#E5380A"/>
<circle cx="59.8916" cy="60.0757" r="36.8768" transform="rotate(-45 59.8916 60.0757)" fill="#010101"/>
<path d="M86.1451 34.1787C86.0861 34.1189 86.0268 34.0592 85.9673 33.9997C86.2203 33.9932 86.2696 34.055 86.1451 34.1787C100.368 48.5938 100.309 71.8096 85.9673 86.1514C71.566 100.553 48.2169 100.553 33.8156 86.1514C33.4778 80.0394 47.1097 57.9135 54.1177 59.9575C61.1258 62.0015 65.5136 66.8864 58.7897 57.2322C52.5393 48.2576 84.5005 35.8125 86.1451 34.1787Z" fill="#9A4242"/>
<path d="M31.1436 36.8562C27.3658 41.5554 25.093 47.3295 24.7859 48.9266L42.0162 66.157L51.5067 56.6665C51.5067 56.6665 31.7654 36.0828 31.1436 36.8562Z" fill="white"/>
<path d="M45.0569 26.26C39.9891 28.3793 35.8428 31.9728 34 33.8156L54.0867 54.0865L63.5772 44.596C63.5772 44.596 45.9724 25.8772 45.0569 26.26Z" fill="white"/>
<rect x="83.8481" y="91.2192" width="10.4245" height="53.947" transform="rotate(-45 83.8481 91.2192)" fill="#E5380A"/>
<rect x="129.366" y="121.994" width="10.4245" height="53.947" transform="rotate(135 129.366 121.994)" fill="url(#paint0_linear)"/>
<defs>
<linearGradient id="paint0_linear" x1="134.578" y1="121.994" x2="134.578" y2="175.941" gradientUnits="userSpaceOnUse">
<stop stop-color="white"/>
<stop offset="1" stop-color="#E5380A" stop-opacity="0"/>
</linearGradient>
</defs>
</svg>
