<svg width="194" height="170" viewBox="0 0 194 170" fill="none" xmlns="http://www.w3.org/2000/svg">
<rect x="47.0795" width="98.2176" height="77.113" rx="38.5565" fill="#B600E3"/>
<rect opacity="0.4" x="47.0795" width="98.2176" height="77.113" rx="38.5565" fill="url(#paint0_linear)"/>
<rect opacity="0.2" x="145.297" y="77.113" width="98.2176" height="77.113" rx="38.5565" transform="rotate(-180 145.297 77.113)" fill="url(#paint1_linear)"/>
<rect x="47.0795" y="21.9163" width="98.2176" height="30.0335" rx="15.0167" fill="white"/>
<circle cx="96.1883" cy="36.933" r="15.0167" fill="#020202"/>
<rect x="86.8535" y="64.1255" width="19.4812" height="58.4435" fill="#B600E3"/>
<path d="M97 118.51C43.4284 118.51 0 141.406 0 169.649H194C194 141.406 150.572 118.51 97 118.51Z" fill="#B600E3"/>
<path d="M97 118.51C43.4284 118.51 0 141.406 0 169.649H194C194 141.406 150.572 118.51 97 118.51Z" fill="url(#paint2_linear)"/>
<defs>
<linearGradient id="paint0_linear" x1="145.297" y1="38.1506" x2="109.176" y2="40.5858" gradientUnits="userSpaceOnUse">
<stop stop-color="#110214"/>
<stop offset="1" stop-color="#110214" stop-opacity="0"/>
</linearGradient>
<linearGradient id="paint1_linear" x1="243.515" y1="115.264" x2="207.393" y2="117.699" gradientUnits="userSpaceOnUse">
<stop stop-color="#110214"/>
<stop offset="1" stop-color="#110214" stop-opacity="0"/>
</linearGradient>
<linearGradient id="paint2_linear" x1="90.9121" y1="169.649" x2="90.9121" y2="53.5733" gradientUnits="userSpaceOnUse">
<stop stop-color="white"/>
<stop offset="0.983607" stop-color="#B600E3" stop-opacity="0"/>
</linearGradient>
</defs>
</svg>
