<svg width="239" height="239" viewBox="0 0 239 239" fill="none" xmlns="http://www.w3.org/2000/svg">
<path d="M96.2485 103.55C112.713 87.0862 139.407 87.0862 155.871 103.55C172.335 120.015 172.335 146.708 155.871 163.173L88.1182 230.925L28.4959 171.303L96.2485 103.55Z" fill="#FB90AE"/>
<path d="M96.2485 103.55C112.713 87.0862 139.407 87.0862 155.871 103.55C172.335 120.015 172.335 146.708 155.871 163.173L88.1182 230.925L28.4959 171.303L96.2485 103.55Z" fill="url(#paint0_linear)"/>
<path d="M105.351 38.2752L115.219 91.9711L141.312 98.6048C143.139 99.0694 144.55 100.522 144.96 102.363L147.825 115.215L159.978 120.323C161.426 120.932 162.503 122.184 162.888 123.706L167.45 141.738L189.983 138.641L175.752 124.411L220.799 114.013L177.157 102.589L207.288 78.0254L172.763 84.7084L190.764 48.7641L139.412 79.0796L105.351 38.2752Z" fill="#E9ED12"/>
<circle cx="126.06" cy="133.085" r="23.8458" transform="rotate(45 126.06 133.085)" fill="white"/>
<circle cx="126.06" cy="133.085" r="6.57167" transform="rotate(45 126.06 133.085)" fill="#968787"/>
<defs>
<linearGradient id="paint0_linear" x1="58.5534" y1="201.361" x2="176.32" y2="83.5942" gradientUnits="userSpaceOnUse">
<stop stop-color="white"/>
<stop offset="1" stop-color="#FB90AE" stop-opacity="0"/>
</linearGradient>
</defs>
</svg>
