<svg width="280" height="260" viewBox="0 0 280 260" fill="none" xmlns="http://www.w3.org/2000/svg">
<path d="M217.64 238.782L240.801 210.043L264.646 177.63C267.306 174.015 266.93 168.999 263.761 165.82L202.258 104.127C196.437 98.2882 186.692 104.18 189.157 112.048C191.882 120.741 180.134 126.355 175.081 118.775L165.126 103.843C159.364 95.2015 145.951 101.414 148.817 111.398L152.012 122.526C154.604 131.556 143.473 138.109 136.835 131.461L54.4714 48.9665C50.2663 44.7547 43.2159 45.6504 40.1976 50.7799L25.3061 76.0869C22.8613 80.2417 24.0604 85.5667 28.0664 88.2483C72.9861 118.318 149.122 169.76 142.736 167.457C140.404 166.616 133.809 163.996 125.338 160.585C116.298 156.944 109.131 168.935 116.65 175.135C117 175.423 117.372 175.683 117.764 175.912L153.785 196.996C154.867 197.63 155.798 198.485 156.787 199.255C163.699 204.636 188.854 215.134 166.112 213.6C160.338 213.211 157.252 221.643 162.09 224.819C166.306 227.586 169.994 230.054 172.174 231.61C177.467 235.388 196.56 239.649 209.046 241.994C212.284 242.602 215.573 241.347 217.64 238.782Z" fill="#A2841A"/>
<path d="M217.64 238.782L240.801 210.043L264.646 177.63C267.306 174.015 266.93 168.999 263.761 165.82L202.258 104.127C196.437 98.2882 186.692 104.18 189.157 112.048C191.882 120.741 180.134 126.355 175.081 118.775L165.126 103.843C159.364 95.2015 145.951 101.414 148.817 111.398L152.012 122.526C154.604 131.556 143.473 138.109 136.835 131.461L54.4714 48.9665C50.2663 44.7547 43.2159 45.6504 40.1976 50.7799L25.3061 76.0869C22.8613 80.2417 24.0604 85.5667 28.0664 88.2483C72.9861 118.318 149.122 169.76 142.736 167.457C140.404 166.616 133.809 163.996 125.338 160.585C116.298 156.944 109.131 168.935 116.65 175.135C117 175.423 117.372 175.683 117.764 175.912L153.785 196.996C154.867 197.63 155.798 198.485 156.787 199.255C163.699 204.636 188.854 215.134 166.112 213.6C160.338 213.211 157.252 221.643 162.09 224.819C166.306 227.586 169.994 230.054 172.174 231.61C177.467 235.388 196.56 239.649 209.046 241.994C212.284 242.602 215.573 241.347 217.64 238.782Z" fill="url(#paint0_linear)"/>
<ellipse cx="182.902" cy="174.251" rx="20.9741" ry="27.1317" transform="rotate(-51.1346 182.902 174.251)" fill="#D1B834"/>
<ellipse cx="183.023" cy="174.101" rx="15.3938" ry="19.8196" transform="rotate(-51.1346 183.023 174.101)" fill="#242228"/>
<defs>
<linearGradient id="paint0_linear" x1="240.2" y1="210.789" x2="74.1939" y2="77.0042" gradientUnits="userSpaceOnUse">
<stop stop-color="white"/>
<stop offset="1" stop-color="#A2841A" stop-opacity="0"/>
</linearGradient>
</defs>
</svg>
